<svg width="512" height="256" viewBox="0 0 512 256" fill="none" xmlns="http://www.w3.org/2000/svg">
<path d="M256 144C290.773 144 321.493 152.32 346.453 163.2C369.493 173.44 384 196.48 384 221.44V256H128V221.653C128 196.48 142.507 173.44 165.547 163.413C190.507 152.32 221.227 144 256 144ZM85.3333 149.333C108.8 149.333 128 130.133 128 106.667C128 83.2 108.8 64 85.3333 64C61.8667 64 42.6667 83.2 42.6667 106.667C42.6667 130.133 61.8667 149.333 85.3333 149.333ZM109.44 172.8C101.547 171.52 93.6533 170.667 85.3333 170.667C64.2133 170.667 44.16 175.147 26.0267 183.04C10.24 189.867 0 205.227 0 222.507V256H96V221.653C96 203.947 100.907 187.307 109.44 172.8ZM426.667 149.333C450.133 149.333 469.333 130.133 469.333 106.667C469.333 83.2 450.133 64 426.667 64C403.2 64 384 83.2 384 106.667C384 130.133 403.2 149.333 426.667 149.333ZM512 222.507C512 205.227 501.76 189.867 485.973 183.04C467.84 175.147 447.787 170.667 426.667 170.667C418.347 170.667 410.453 171.52 402.56 172.8C411.093 187.307 416 203.947 416 221.653V256H512V222.507ZM256 0C291.413 0 320 28.5867 320 64C320 99.4133 291.413 128 256 128C220.587 128 192 99.4133 192 64C192 28.5867 220.587 0 256 0Z" fill="url(#paint0_linear)"/>
<defs>
<linearGradient id="paint0_linear" x1="9.36535e-06" y1="256.834" x2="512" y2="-7.65425e-06" gradientUnits="userSpaceOnUse">
<stop stop-color="#65D7CE"/>
<stop offset="1" stop-color="#65A5EF"/>
</linearGradient>
</defs>
</svg>
