<svg width="512" height="526" viewBox="0 0 512 526" fill="none" xmlns="http://www.w3.org/2000/svg">
<path d="M451.742 288.752C452.839 280.533 453.387 272.041 453.387 263C453.387 254.233 452.839 245.467 451.468 237.248L507.12 193.962C512.055 190.127 513.426 182.73 510.41 177.251L457.773 86.2969C454.484 80.2698 447.63 78.3521 441.599 80.2698L376.077 106.57C362.37 96.1594 347.84 87.3927 331.665 80.8177L321.796 11.2323C320.699 4.65729 315.216 0 308.637 0H203.363C196.784 0 191.575 4.65729 190.478 11.2323L180.609 80.8177C164.434 87.3927 149.63 96.4333 136.197 106.57L70.6755 80.2698C64.6443 78.0781 57.7905 80.2698 54.5008 86.2969L2.13837 177.251C-1.15141 183.004 -0.0548233 190.127 5.42815 193.962L61.0803 237.248C59.7096 245.467 58.613 254.507 58.613 263C58.613 271.493 59.1613 280.533 60.532 288.752L4.87985 332.038C-0.0548229 335.873 -1.42556 343.27 1.59007 348.749L54.2266 439.703C57.5164 445.73 64.3701 447.648 70.4014 445.73L135.923 419.43C149.63 429.841 164.16 438.607 180.335 445.182L190.204 514.768C191.575 521.343 196.784 526 203.363 526H308.637C315.216 526 320.699 521.343 321.522 514.768L331.391 445.182C347.566 438.607 362.37 429.841 375.803 419.43L441.325 445.73C447.356 447.922 454.21 445.73 457.499 439.703L510.136 348.749C513.426 342.722 512.055 335.873 506.846 332.038L451.742 288.752ZM256 361.625C201.719 361.625 157.306 317.244 157.306 263C157.306 208.756 201.719 164.375 256 164.375C310.281 164.375 354.694 208.756 354.694 263C354.694 317.244 310.281 361.625 256 361.625Z" fill="url(#paint0_linear)"/>
<defs>
<linearGradient id="paint0_linear" x1="512" y1="2.97053e-05" x2="2.2535e-05" y2="526" gradientUnits="userSpaceOnUse">
<stop stop-color="#65A5EF"/>
<stop offset="1" stop-color="#65D8CD"/>
</linearGradient>
</defs>
</svg>
