<svg width="125" height="138" viewBox="0 0 125 138" fill="none" xmlns="http://www.w3.org/2000/svg">
<path d="M116.983 45.9423C121.229 34.8334 121.844 24.7473 118.357 23.4143C114.869 22.0813 108.6 30.0063 104.354 41.1152C100.108 52.2241 99.4929 62.3103 102.98 63.6433C106.468 64.9762 112.737 57.0512 116.983 45.9423Z" fill="#2F2E41"/>
<path d="M70.8613 119.118C94.6468 119.118 113.929 99.8362 113.929 76.0508C113.929 52.2654 94.6468 32.9835 70.8613 32.9835C47.0759 32.9835 27.794 52.2654 27.794 76.0508C27.794 99.8362 47.0759 119.118 70.8613 119.118Z" fill="#2F2E41"/>
<path d="M64.3195 109.85H51.2357V133.292H64.3195V109.85Z" fill="#2F2E41"/>
<path d="M90.4869 109.85H77.4032V133.292H90.4869V109.85Z" fill="#2F2E41"/>
<path d="M62.1389 137.653C68.1605 137.653 73.042 135.823 73.042 133.565C73.042 131.307 68.1605 129.476 62.1389 129.476C56.1172 129.476 51.2357 131.307 51.2357 133.565C51.2357 135.823 56.1172 137.653 62.1389 137.653Z" fill="#2F2E41"/>
<path d="M88.3063 137.108C94.328 137.108 99.2095 135.278 99.2095 133.02C99.2095 130.762 94.328 128.931 88.3063 128.931C82.2847 128.931 77.4032 130.762 77.4032 133.02C77.4032 135.278 82.2847 137.108 88.3063 137.108Z" fill="#2F2E41"/>
<path d="M71.9517 79.8669C80.0809 79.8669 86.6709 73.2769 86.6709 65.1477C86.6709 57.0185 80.0809 50.4285 71.9517 50.4285C63.8225 50.4285 57.2324 57.0185 57.2324 65.1477C57.2324 73.2769 63.8225 79.8669 71.9517 79.8669Z" fill="white"/>
<path d="M71.9517 70.0541C74.6614 70.0541 76.8581 67.8574 76.8581 65.1477C76.8581 62.438 74.6614 60.2413 71.9517 60.2413C69.2419 60.2413 67.0452 62.438 67.0452 65.1477C67.0452 67.8574 69.2419 70.0541 71.9517 70.0541Z" fill="#3F3D56"/>
<path d="M29.0846 35.9994C25.6071 20.4256 36.7232 4.689 53.9131 0.850628C71.1031 -2.98774 87.8573 6.52571 91.3348 22.0995C94.8123 37.6733 83.4199 43.4172 66.23 47.2555C49.04 51.0938 32.5621 51.5732 29.0846 35.9994Z" fill="#CFCCE0"/>
<path d="M41.8094 65.2952C43.4093 61.9219 35.9955 55.0558 25.2501 49.9594C14.5047 44.8631 4.4968 43.4663 2.89689 46.8396C1.29698 50.2129 8.71089 57.0789 19.4563 62.1753C30.2017 67.2717 40.2095 68.6685 41.8094 65.2952Z" fill="#2F2E41"/>
<path d="M49.7068 91.5878C49.7068 95.8029 60.5601 104.126 72.6034 104.126C84.6467 104.126 95.9385 92.2594 95.9385 88.0443C95.9385 83.8292 84.6467 88.862 72.6034 88.862C60.5601 88.862 49.7068 87.3727 49.7068 91.5878Z" fill="white"/>
</svg>
