<svg width="512" height="512" viewBox="0 0 512 512" fill="none" xmlns="http://www.w3.org/2000/svg">
<path d="M187.733 77.8343C206.093 49.3899 238.158 30.7717 274.36 30.7717C331.507 30.7717 377.794 77.0586 377.794 134.206C377.794 170.408 359.176 202.473 330.731 220.832L187.733 77.8343ZM481.228 371.329C480.711 342.885 464.937 316.768 439.596 303.58C425.632 296.339 410.376 289.616 393.826 283.927L481.228 371.329ZM512 475.281L36.7192 0L0 36.4606L229.883 266.343C183.079 272.291 142.222 286.772 109.123 303.838C83.2646 317.026 67.4909 343.661 67.4909 372.622V444.509H408.048L475.539 512L512 475.281Z" fill="url(#paint0_linear)"/>
<defs>
<linearGradient id="paint0_linear" x1="512" y1="0" x2="0" y2="512" gradientUnits="userSpaceOnUse">
<stop stop-color="#65A5EF"/>
<stop offset="1" stop-color="#65D7CE"/>
</linearGradient>
</defs>
</svg>
